<svg id="Layer_1" data-name="Layer 1" xmlns="http://www.w3.org/2000/svg" viewBox="0 0 375.22 86.52"><defs><style>.cls-1{fill:#fca958;}</style></defs><title>Practical_Parenting_logo_black</title><path class="cls-1" d="M2.87,10.42H7.14c3.18,0,5.82-1.58,5.82-5.08s-2.39-5-5.78-5H0V14.93H2.87V10.42Zm0-7.55H7.18c1.64,0,3,.56,3,2.48S8.93,8,7.18,8H2.87V2.87Z" transform="translate(0 0.01)"/><path class="cls-1" d="M16.68,9.63h2.68l4.6,5.3h5.41l1.79-3.5h7.47l1.79,3.5H43.6L36.22,0.29H33.7l-7,13.87-4-4.62a4.64,4.64,0,0,0,2.61-.91,4.71,4.71,0,0,0,1.75-3.56,4.62,4.62,0,0,0-1.6-3.5A6.89,6.89,0,0,0,21.31.37H13.79V14.93h2.89V9.63Zm17.2-3.7L35,3.2l1,2.68,1.46,3.19h-5Zm-17.2-3.1h4.63c1.58,0,2.85.56,2.85,2.23s-1,2.2-2.64,2.2H16.68V2.83Z" transform="translate(0 0.01)"/><path class="cls-1" d="M49.82,15.29a7.19,7.19,0,0,0,7-4.78l-2.51-.8a4.67,4.67,0,0,1-4.51,3.06C47,12.77,45,10.59,45,7.61a4.74,4.74,0,0,1,4.39-5.07H49.8a4.63,4.63,0,0,1,4.51,2.94l2.39-.85A6.92,6.92,0,0,0,49.79,0a7.65,7.65,0,1,0-.52,15.29h0.55Z" transform="translate(0 0.01)"/><polygon class="cls-1" points="62.45 14.95 65.36 14.95 65.36 2.86 71 2.86 71 0.39 56.79 0.39 56.79 2.86 62.45 2.86 62.45 14.95"/><rect class="cls-1" x="72.18" y="0.38" width="2.89" height="14.56"/><path class="cls-1" d="M83.78,15.29a7.19,7.19,0,0,0,7-4.78l-2.47-.8a4.67,4.67,0,0,1-4.51,3.06C81,12.77,79,10.59,79,7.61a4.74,4.74,0,0,1,4.4-5.06h0.4a4.63,4.63,0,0,1,4.51,2.93l2.39-.85A6.92,6.92,0,0,0,83.79,0a7.65,7.65,0,1,0-.56,15.29h0.55Z" transform="translate(0 0.01)"/><path class="cls-1" d="M92.73,14.93l1.79-3.5H102l1.79,3.5H107L99.58,0.29H97L89.63,14.93h3.1Zm4.51-9L98.31,3.2l1,2.68,1.47,3.19H95.72Z" transform="translate(0 0.01)"/><polygon class="cls-1" points="119.19 12.45 110.5 12.45 110.5 0.38 107.56 0.38 107.56 14.95 119.19 14.95 119.19 12.45"/><polygon class="cls-1" points="215.38 31.15 230.63 31.15 230.63 85.15 243.81 85.15 243.81 31.15 259.06 31.15 259.06 19.59 215.38 19.59 215.38 31.15"/><rect class="cls-1" x="261.31" y="19.59" width="13.18" height="65.56"/><polygon class="cls-1" points="200.26 55.03 180.13 19.59 169.14 19.59 169.14 85.15 182.08 85.15 182.08 50.79 201.41 85.15 213.13 85.15 213.13 19.59 200.26 19.59 200.26 55.03"/><polygon class="cls-1" points="307.85 55.03 287.72 19.59 276.73 19.59 276.73 85.15 289.67 85.15 289.67 50.79 309 85.15 320.72 85.15 320.72 19.59 307.85 19.59 307.85 55.03"/><path class="cls-1" d="M345.31,60.2h16v1.51c-2.15,5.84-6.63,9.75-11.17,9.75-8.8,0-13.54-9.65-13.54-18.73,0-10.11,5.92-18.66,12.92-18.66,5.15,0,9,3.14,11.71,9.6l0.32,0.76,13.67-4.83L375,38.8c-5.14-17.67-17.87-20.3-25-20.3a24.58,24.58,0,0,0-20,9.77c-4.85,6.22-7.41,14.71-7.41,24.55,0,19.84,11.29,33.69,27.45,33.69,9,0,21-4.9,25-18.71v-21H345.31V60.2Z" transform="translate(0 0.01)"/><polygon class="cls-1" points="130.06 85.15 166.88 85.15 166.88 73.43 142.93 73.43 142.93 58.47 165.9 58.47 165.9 46.54 142.93 46.54 142.93 31.15 166.88 31.15 166.88 19.59 130.06 19.59 130.06 85.15"/><path class="cls-1" d="M40.58,43c0-14.65-6.92-23.39-18.5-23.39H0V85.14H13.11V66.91H22C31,66.91,40.58,60.62,40.58,43ZM22,55.41H13.07V31.07h9c3.32,0,5.8,6.24,5.8,11.82S25.31,55.3,22,55.41Z" transform="translate(0 0.01)"/><path class="cls-1" d="M52.39,19.21L31,83.13v2H44.31l4.31-12.67H66.25l4.31,12.67H84.31V83.31L62.83,19.21H52.39Zm0,38.75,5.18-18.59,5,18.59H52.39Z" transform="translate(0 0.01)"/><path class="cls-1" d="M127.08,41.88c0-6.29-2-12.62-5.19-16.51a16.67,16.67,0,0,0-12.95-5.78h-23V85.15H99.06V63.72h3.87L113.5,85.14h14.67V83.41L117,62.31C122.81,59.77,127.08,51.25,127.08,41.88Zm-14.5,7.43c-0.61,1.37-1.69,3-3.39,3H99.06v-21h9.88c3.26,0,5,5.34,5,10.61a19.2,19.2,0,0,1-1.36,7.38h0Z" transform="translate(0 0.01)"/></svg>